<?xml version="1.0" encoding="UTF-8"?>
<svg width="200px" height="34px" viewBox="0 0 200 34" version="1.1" xmlns="http://www.w3.org/2000/svg" xmlns:xlink="http://www.w3.org/1999/xlink">
    <!-- Generator: Sketch 62 (91390) - https://sketch.com -->
    <title>Logo</title>
    <desc>Created with Sketch.</desc>
    <defs>
        <polygon id="path-1" points="0.315454545 0.548060606 5.75454545 0.548060606 5.75454545 5.98684848 0.315454545 5.98684848"></polygon>
        <polygon id="path-3" points="0 0.0225331777 14.8752676 0.0225331777 14.8752676 24.1118524 0 24.1118524"></polygon>
        <polygon id="path-5" points="0.214853274 0.416181818 14.754813 0.416181818 14.754813 6.66666667 0.214853274 6.66666667"></polygon>
    </defs>
    <g id="UI" stroke="none" stroke-width="1" fill="none" fill-rule="evenodd">
        <g id="1.1-Header-stick" transform="translate(-165.000000, -22.000000)">
            <g id="Header" transform="translate(165.000000, 18.000000)">
                <g id="Logo" transform="translate(0.000000, 4.000000)">
                    <g id="Group-3" transform="translate(193.939394, 19.371394)">
                        <mask id="mask-2" fill="white">
                            <use xlink:href="#path-1"></use>
                        </mask>
                        <g id="Clip-2"></g>
                        <path d="M0.315454545,3.26745455 C0.315454545,1.80321212 1.57,0.548060606 3.03484848,0.548060606 C4.52878788,0.548060606 5.75484848,1.80321212 5.75484848,3.26745455 C5.75484848,4.762 4.52878788,5.98684848 3.03484848,5.98684848 C1.57,5.98684848 0.315454545,4.762 0.315454545,3.26745455" id="Fill-1" fill="#D0E3D2" mask="url(#mask-2)"></path>
                    </g>
                    <g id="Group-6" transform="translate(0.000000, 0.583515)">
                        <mask id="mask-4" fill="white">
                            <use xlink:href="#path-3"></use>
                        </mask>
                        <g id="Clip-5"></g>
                        <path d="M4.06490909,16.2892121 C4.04672727,18.8589091 5.70975758,20.3061818 7.71157576,20.3207273 C8.87581818,20.3298182 9.83521212,20.008 10.6158182,19.6255758 L10.6588485,13.798303 C9.70672727,13.2231515 8.66309091,12.8267879 7.52854545,12.818303 C6.06430303,12.8073939 4.08369697,13.7195152 4.06430303,16.2892121 L4.06490909,16.2892121 Z M13.4212727,0.0407272727 C14.2873333,0.0473939394 14.8818788,0.619515152 14.8752676,1.42618182 L14.7109697,23.3916364 C14.7085455,23.6910303 14.4376364,23.957697 14.1394545,23.9552727 L12.5861212,23.9437576 C12.0170303,23.9395152 11.1830909,23.5752727 10.7994545,22.9740606 C9.83763636,23.6243636 8.57884848,24.1237576 7.02551515,24.1118524 C2.81157576,24.0801212 -0.0326666667,20.6522424 6.06060606e-05,16.2589091 C0.0346060606,11.8061818 3.49278788,8.96315152 6.95824242,8.98860606 C8.54309091,9.00072727 9.734,9.45830303 10.6867273,10.0328485 L10.7400606,2.92072727 C10.7473333,1.84436364 10.5424848,1.33527273 10.4267273,0.766787879 C10.3400606,0.377090909 10.4921818,0.0201212121 10.7915758,0.0225331777 L13.4212727,0.0419393939 L13.4212727,0.0407272727 Z" id="Fill-4" fill="#176B61" mask="url(#mask-4)"></path>
                    </g>
                    <path d="M19.4501818,9.78549875 C19.1210909,9.78309091 18.8810909,10.0497576 18.8786667,10.3491515 L18.7828677,23.0491515 C18.7774545,23.9158182 19.3107879,24.5776364 20.2368485,24.584303 L22.3586667,24.6000791 C22.6568485,24.6024848 22.8974545,24.3661212 22.9004848,24.0067273 L23.0023123,10.3794545 C23.0041212,10.0806667 22.7380606,9.81036364 22.4398788,9.80793939 L19.4501818,9.78549875 Z M18.7556364,2.90672727 C18.7641212,1.68066667 19.7580606,0.672787879 20.9829091,0.681878788 C22.2083636,0.690969697 23.2174545,1.714 23.2071515,2.94006061 C23.1992727,4.16490909 22.1744242,5.14309091 20.9507879,5.134 C19.7241212,5.12490909 18.7465455,4.13157576 18.7556364,2.90672727 L18.7556364,2.90672727 Z" id="Fill-7" fill="#176B61"></path>
                    <path d="M32.2733333,21.5953939 C33.3484848,21.6032727 34.7860606,21.165697 35.689697,20.4250909 C35.6636364,19.8572121 35.670303,18.8414545 35.7054545,18.1844848 C33.58,18.6172121 30.7369697,19.1929697 30.7260253,20.5378182 C30.7206061,21.3153939 31.3472727,21.5887273 32.2733333,21.5953939 L32.2733333,21.5953939 Z M40.0563636,23.9850909 C40.1139394,24.3450909 39.990303,24.7317576 39.6612121,24.7293333 L37.4206061,24.7123636 C36.6745455,24.7069091 36.32,24.1075152 36.1175758,23.2081212 C35.1842424,24.0984242 34.0436364,24.8372121 31.5030303,24.8178182 C28.4236364,24.7947879 26.4933333,23.2875152 26.5133333,20.5675152 C26.5442424,16.4729697 30.9448485,15.5493333 35.7927273,14.7493333 C35.829697,13.5832727 35.1139394,13.3390303 33.9490909,13.3305455 C32.5139394,13.3196364 31.0175758,13.7572121 29.2181818,14.5202424 C28.7690909,14.6966061 28.530303,14.5747879 28.3830303,14.2450909 L27.4436364,11.9675152 C27.2963636,11.6675152 27.5387879,11.3402424 27.8387879,11.1626667 C29.3078788,10.3669091 31.8545455,9.69781818 34.2745455,9.716 C37.92,9.74327273 39.9357576,12.0299394 39.76,15.5844848 C39.6187879,18.4232727 39.6290909,21.0529697 40.0557576,23.9850909 L40.0563636,23.9850909 Z" id="Fill-9" fill="#176B61"></path>
                    <path d="M75.2391515,24.2478182 C75.2961212,24.6369091 75.174303,24.9938788 74.873697,24.9920675 L72.3646061,24.9732727 C71.4082424,24.966 70.8755152,24.3047879 70.8815758,23.4672121 L70.9361212,16.0866061 C70.9494545,14.4132727 69.6694545,13.6266061 68.2646061,13.616303 C66.9494545,13.606 65.8094545,14.195697 64.7870303,15.1138788 L64.7185455,24.3484242 C64.7161212,24.6478182 64.444,24.9144848 64.1452121,24.9120606 L61.1276364,24.8896364 C60.8294545,24.8872121 60.5912727,24.6169091 60.5942744,24.3175152 L60.6961212,10.6611515 C60.6985455,10.3617576 60.9385455,10.0950909 61.2373333,10.0969091 L63.3003636,10.1126667 C64.0470303,10.1181212 64.5494545,10.7496364 64.7246061,11.3478182 C65.8070303,10.6096364 67.1864242,9.93206061 68.8894545,9.94478788 C71.9682424,9.96781818 75.0906667,12.0532727 75.0633939,15.7290303 L75.014303,22.3041818 C75.0373333,23.1405455 75.1233939,23.7090303 75.2385455,24.2478182 L75.2391515,24.2478182 Z" id="Fill-11" fill="#176B61"></path>
                    <path d="M85.3604848,21.4542424 C87.4829091,21.47 89.0501818,19.7481818 89.0641212,17.7457576 C89.0804848,15.6839394 87.5398788,13.939697 85.4174545,13.9239394 C83.2956364,13.9081818 81.7289697,15.6287879 81.7126061,17.6912121 C81.6974545,19.6936364 83.2386667,21.4384848 85.3604848,21.4542424 M85.332,25.279697 C81.1489697,25.2481818 77.7059394,21.9354545 77.7386667,17.6318182 C77.7713939,13.2687879 81.2610909,10.0372727 85.4459394,10.0681818 C89.6295758,10.099697 93.0726061,13.3827273 93.0392727,17.7463636 C93.0065455,22.0493939 89.5156364,25.3106061 85.332,25.279697" id="Fill-13" fill="#176B61"></path>
                    <path d="M96.8655758,20.8535152 C97.1073939,20.4371515 97.348,20.3189697 97.7055758,20.5001818 C97.7049697,20.5310909 99.4916364,21.4407879 101.223758,21.4535152 C102.300121,21.4613939 102.751636,21.1365455 102.755273,20.6583636 C102.759515,20.0601818 102.132242,19.8468485 100.163758,19.3238182 C97.4801212,18.5862424 95.6395152,16.9589697 95.6564848,14.6880606 C95.6722424,12.4165455 97.6910303,10.1898788 101.368,10.2177576 C103.578909,10.2341212 104.830424,10.8407879 106.228,11.6280606 C106.585576,11.8407879 106.761939,12.2001818 106.550424,12.4977576 L105.129818,14.6389697 C104.917697,14.9365455 104.618909,15.0529091 104.320727,14.9613939 C103.873455,14.7492727 102.562545,14.1710909 101.337697,14.1613939 C100.381333,14.1547273 99.9595152,14.5104848 99.957697,14.8686667 C99.9540606,15.3468485 100.759515,15.6226061 102.13103,15.9910909 C104.784364,16.7280606 107.40497,18.152303 107.383758,20.8426061 C107.365576,23.352303 104.839515,25.4250303 101.194667,25.3983636 C98.7437576,25.3795758 96.4807273,24.1674545 95.7395152,23.5644242 C95.5310303,23.4135152 95.4134545,23.0838182 95.5649697,22.8753333 L96.8655758,20.8535152 Z" id="Fill-15" fill="#176B61"></path>
                    <path d="M119.434788,24.3090909 C119.49297,24.5490909 119.342061,24.7266667 119.131758,24.9048485 C118.649939,25.2593939 117.483273,25.4593939 116.408121,25.4515152 C113.119636,25.4266667 111.606909,23.9218182 111.637818,19.9175758 L111.677818,14.4484848 L109.975394,14.4357576 C109.675394,14.4339394 109.408121,14.1927273 109.411126,13.8642424 L109.416,13.2654545 C109.418424,12.9666667 109.478424,12.7581818 109.659636,12.550303 C111.346909,10.6806061 113.184485,8.72060606 114.787515,6.19272727 C114.938424,5.95515152 115.05903,5.83575758 115.208727,5.83696056 L115.508121,5.83939394 C115.777212,5.84121212 115.894788,5.99151515 115.892364,6.29090909 L115.861455,10.5048485 L118.520848,10.5242424 C118.849333,10.5272727 119.146303,10.7981818 119.144485,11.1266667 L119.123273,13.9054545 C119.120848,14.2345455 118.819636,14.5018182 118.491152,14.4993939 L116.369333,14.4836364 C116.131152,14.4818182 115.920848,14.449697 115.803273,14.389697 L115.763273,19.649697 C115.754788,20.8745455 116.046909,21.5630303 117.21297,21.5721212 C117.602061,21.5745455 117.960242,21.5187879 118.260848,21.4606061 C118.649333,21.3739394 118.886909,21.6151515 118.97297,22.0042424 L119.434788,24.3078788 L119.434788,24.3090909 Z" id="Fill-17" fill="#176B61"></path>
                    <path d="M123.452303,10.5614381 C123.123212,10.5590303 122.882606,10.825697 122.880182,11.1250909 L122.784383,23.8250909 C122.77897,24.6917576 123.312303,25.3535758 124.23897,25.3602424 L126.360182,25.3760185 C126.65897,25.3784242 126.899576,25.1420606 126.902,24.7826667 L127.003835,11.1553939 C127.006242,10.8566061 126.739576,10.586303 126.441394,10.5838788 L123.452303,10.5614381 Z M122.757152,3.68266667 C122.76503,2.45660606 123.760182,1.44872727 124.984424,1.45781818 C126.209879,1.46690909 127.21897,2.48993939 127.208667,3.716 C127.200788,4.94084848 126.175939,5.9190303 124.952303,5.90993939 C123.725636,5.90084848 122.747455,4.90751515 122.757152,3.68266667 L122.757152,3.68266667 Z" id="Fill-19" fill="#176B61"></path>
                    <path d="M145.606667,25.4901522 L142.588485,25.467697 C142.288485,25.4652727 142.109697,25.3737576 141.903636,25.1331515 L135.469697,18.0616364 L135.419394,24.8761818 C135.417576,25.1749697 135.146061,25.4416364 134.847273,25.4398182 L131.888485,25.4173939 C131.56,25.4149697 131.293333,25.1440606 131.295758,24.8452727 L131.448485,4.40345455 C131.455758,3.29860606 131.250909,2.78830303 131.135152,2.25072727 C131.048485,1.8610303 131.2,1.50284848 131.529091,1.50526049 L134.129697,1.52527273 C134.995758,1.53133333 135.590303,2.10345455 135.583636,2.91012121 L135.478182,16.9567879 L140.813939,10.9889091 C141.023636,10.7513333 141.233333,10.6937576 141.473333,10.6955758 L144.460606,10.718 C145.029091,10.7222424 145.381818,11.5010303 144.930303,12.0064848 L139.808485,17.5567879 L146.094545,24.2386061 C146.568485,24.7804242 146.324242,25.4955758 145.606667,25.4901522" id="Fill-21" fill="#176B61"></path>
                    <path d="M153.524545,22.5000606 C154.599697,22.5079394 156.037273,22.0703636 156.940909,21.3297576 C156.915455,20.7618788 156.921515,19.7461212 156.956667,19.0891515 C154.831818,19.5218788 151.988788,20.0976364 151.977835,21.4424848 C151.971818,22.2200606 152.598485,22.4927879 153.524545,22.5000606 L153.524545,22.5000606 Z M161.308182,24.8897576 C161.365758,25.2497576 161.242121,25.6364242 160.913636,25.634 L158.671818,25.6170303 C157.925758,25.6115758 157.571818,25.0121818 157.368788,24.1127879 C156.436061,25.0030909 155.294242,25.7412727 152.754242,25.7224848 C149.675455,25.6994545 147.745152,24.1915758 147.764545,21.4721818 C147.796061,17.3776364 152.196061,16.454 157.043333,15.654 C157.081515,14.4879394 156.365758,14.243697 155.200909,14.2352121 C153.765152,14.224303 152.268788,14.6618788 150.47,15.4249091 C150.020909,15.6012727 149.781515,15.4794545 149.634848,15.1497576 L148.694848,12.8721818 C148.547576,12.5715758 148.79,12.2449091 149.09,12.0673333 C150.559697,11.2715758 153.106364,10.6024848 155.526364,10.6200606 C159.171818,10.6473333 161.18697,12.9346061 161.011818,16.4891515 C160.87,19.3279394 160.880909,21.9576364 161.307576,24.8897576 L161.308182,24.8897576 Z" id="Fill-23" fill="#176B61"></path>
                    <path d="M175.813818,11.5797576 C176.200485,11.8512727 176.347758,12.0615758 176.046545,12.4779394 L174.474424,14.7379394 C174.293212,15.0052121 174.054424,15.0930909 173.696242,15.0009697 C173.278061,14.8482424 172.862303,14.6355152 171.964121,14.6288485 C171.06897,14.6221818 169.391394,14.9979394 168.929576,16.9379394 L168.867758,25.1258182 C168.865333,25.4246061 168.624727,25.6912727 168.296242,25.6888649 L165.276848,25.6664242 C164.978667,25.664 164.741091,25.393697 164.743497,25.0949091 L164.845333,11.4379394 C164.847758,11.1397576 165.089576,10.8718788 165.388364,10.874303 L167.449576,10.8894545 C168.256242,10.8955152 168.78897,11.6167273 168.933212,12.2458182 C169.836848,11.4749091 171.007152,10.7961212 172.710788,10.8088485 C174.23503,10.8203636 175.307152,11.2167273 175.812606,11.5797576 L175.813818,11.5797576 Z" id="Fill-25" fill="#176B61"></path>
                    <path d="M181.586788,16.6131515 L187.534061,16.6573939 C187.39103,15.6707273 186.323152,14.5858788 184.590424,14.5731515 C182.887394,14.5604242 181.743758,15.658 181.586788,16.6131515 L181.586788,16.6131515 Z M189.63103,19.8416364 L181.532848,19.7810303 C181.878909,21.4573939 183.486788,22.3361818 185.280727,22.3495152 C186.744364,22.3604242 188.301333,21.8937576 189.111636,21.4507273 C189.472242,21.2743636 189.740727,21.2167879 190.036485,21.607697 L190.717091,22.5689091 C190.954061,22.8689091 191.013455,23.0786061 190.800727,23.3458788 C189.563152,25.0701212 187.433455,25.9816364 184.775273,25.9616364 C180.589818,25.9301212 177.177697,22.8864848 177.210424,18.3434545 C177.242545,14.0107273 180.52497,10.7773939 184.708606,10.8089091 C189.131636,10.8416364 191.855879,14.2095152 191.829818,17.7058788 C191.820121,19.1404242 190.946788,19.8513333 189.631636,19.8416364 L189.63103,19.8416364 Z" id="Fill-27" fill="#176B61"></path>
                    <g id="Group-31" transform="translate(42.424242, 26.644121)">
                        <mask id="mask-6" fill="white">
                            <use xlink:href="#path-5"></use>
                        </mask>
                        <g id="Clip-30"></g>
                        <path d="M11.0967273,0.416181818 C10.9773333,0.416181818 10.8682424,0.490727273 10.8288485,0.604060606 C10.3415758,1.97133333 9.05551515,3.15315152 7.44884848,3.1410303 C5.86339394,3.12951515 4.62278788,1.95375758 4.14278788,0.604060606 C4.10339394,0.491333333 3.99430303,0.416181818 3.87430303,0.416181818 L0.503393939,0.416181818 C0.322787879,0.416181818 0.185212121,0.580424242 0.220363636,0.757393939 C0.878545455,4.17133333 3.87854545,6.64042424 7.43066667,6.66648485 C11.0221818,6.69315152 14.0833939,4.21739394 14.7494545,0.757393939 C14.784,0.580424242 14.6470303,0.416181818 14.4676364,0.416181818 L11.0967273,0.416181818 Z" id="Fill-29" fill="#176B61" mask="url(#mask-6)"></path>
                    </g>
                    <path d="M49.8804848,21.5507273 C52.0362424,21.5664848 53.6271515,19.8216364 53.6410909,17.7931515 C53.6568485,15.7034545 52.092,13.9361818 49.9380606,13.9204242 C47.7829091,13.9040606 46.192,15.647697 46.1774545,17.7373939 C46.1610909,19.7664848 47.7259394,21.5349697 49.8804848,21.5507273 M49.8513939,25.4270909 C45.6029091,25.3949697 42.1089697,22.038 42.1404848,17.6773939 C42.1738182,13.2561818 45.7192727,9.98163636 49.9677576,10.0131515 C54.2144242,10.0446667 57.7101818,13.3719394 57.6768485,17.7931515 C57.6453333,22.1537576 54.0998788,25.4586061 49.8513939,25.4270909" id="Fill-32" fill="#176B61"></path>
                    <path d="M54.0855758,10.0995152 C53.8098182,10.0995152 53.5855758,10.3237576 53.5855758,10.6007273 L53.5855758,11.8225455 L53.5661818,11.8225455 C53.5661818,11.8225455 57.6928485,20.3370909 57.6928485,17.7807273 L57.6928485,10.6007273 C57.6928485,10.3237576 57.4686061,10.0995152 57.1916364,10.0995152 L54.0855758,10.0995152 Z" id="Fill-34" fill="#176B61"></path>
                </g>
            </g>
        </g>
    </g>
</svg>